<?xml version="1.0" encoding="utf-8"?>
<!-- Generator: Adobe Illustrator 28.2.0, SVG Export Plug-In . SVG Version: 6.00 Build 0)  -->
<svg version="1.1" id="Layer_1" xmlns="http://www.w3.org/2000/svg" xmlns:xlink="http://www.w3.org/1999/xlink" x="0px" y="0px"
	 viewBox="0 0 63 64" style="enable-background:new 0 0 63 64;" xml:space="preserve">
<style type="text/css">
	.st0{fill:#F4BD61;}
	.st1{fill:#FEF9E1;}
</style>
<path id="_x30_1" class="st0" d="M2.3,10.7L2.3,10.7c1.3,0,2.3,1,2.3,2.3v15.2c0,1.3-1,2.3-2.3,2.3l0,0c-1.3,0-2.3-1-2.3-2.3V13
	C0,11.8,1,10.7,2.3,10.7z"/>
<path id="_x30_2" class="st0" d="M22,13.6L22,13.6c1.3,0,2.3,1,2.3,2.3v12.4c0,1.3-1,2.3-2.3,2.3l0,0c-1.3,0-2.3-1-2.3-2.3V15.9
	C19.7,14.6,20.7,13.6,22,13.6z"/>
<path id="_x30_3" class="st0" d="M41,10.7L41,10.7c1.3,0,2.3,1,2.3,2.3v15.2c0,1.3-1,2.3-2.3,2.3l0,0c-1.3,0-2.3-1-2.3-2.3V13
	C38.7,11.8,39.8,10.7,41,10.7z"/>
<path id="_x30_4" class="st0" d="M60.7,13.6L60.7,13.6c1.3,0,2.3,1,2.3,2.3v12.4c0,1.3-1,2.3-2.3,2.3h0c-1.3,0-2.3-1-2.3-2.3V15.9
	C58.4,14.6,59.4,13.6,60.7,13.6z"/>
<path id="_x30_5" class="st1" d="M50.9,0.5L50.9,0.5c1.3,0,2.3,1,2.3,2.3v25.5c0,1.3-1,2.3-2.3,2.3l0,0c-1.3,0-2.3-1-2.3-2.3V2.8
	C48.6,1.5,49.6,0.5,50.9,0.5z"/>
<path id="_x30_6" class="st1" d="M31.5,17L31.5,17c1.4,0,2.6,1.2,2.6,2.6V28c0,1.4-1.2,2.6-2.6,2.6l0,0c-1.4,0-2.6-1.2-2.6-2.6v-8.4
	C28.9,18.1,30.1,17,31.5,17z"/>
<path id="_x30_7" class="st1" d="M12.1,0.5L12.1,0.5c1.3,0,2.3,1,2.3,2.3v25.5c0,1.3-1,2.3-2.3,2.3l0,0c-1.3,0-2.3-1-2.3-2.3V2.8
	C9.8,1.5,10.9,0.5,12.1,0.5z"/>
<path id="_x30_1_x5F_2" class="st1" d="M2.3,53.3L2.3,53.3c1.3,0,2.3-1,2.3-2.3V35.7c0-1.3-1-2.3-2.3-2.3l0,0c-1.3,0-2.3,1-2.3,2.3
	V51C0,52.2,1,53.3,2.3,53.3z"/>
<path id="_x30_2_x5F_2" class="st1" d="M22,50.4L22,50.4c1.3,0,2.3-1,2.3-2.3V35.7c0-1.3-1-2.3-2.3-2.3l0,0c-1.3,0-2.3,1-2.3,2.3
	v12.4C19.7,49.4,20.7,50.4,22,50.4z"/>
<path id="_x30_3_x5F_2" class="st1" d="M41,53.3L41,53.3c1.3,0,2.3-1,2.3-2.3V35.7c0-1.3-1-2.3-2.3-2.3l0,0c-1.3,0-2.3,1-2.3,2.3V51
	C38.7,52.2,39.8,53.3,41,53.3z"/>
<path id="_x30_4_x5F_2" class="st1" d="M60.7,50.4L60.7,50.4c1.3,0,2.3-1,2.3-2.3V35.7c0-1.3-1-2.3-2.3-2.3l0,0
	c-1.3,0-2.3,1-2.3,2.3v12.4C58.4,49.4,59.4,50.4,60.7,50.4z"/>
<path id="_x30_5_x5F_2" class="st0" d="M50.9,63.5L50.9,63.5c1.3,0,2.3-1,2.3-2.3V35.7c0-1.3-1-2.3-2.3-2.3l0,0
	c-1.3,0-2.3,1-2.3,2.3v25.5C48.6,62.5,49.6,63.5,50.9,63.5z"/>
<path id="_x30_6_x5F_2" class="st0" d="M31.5,47L31.5,47c1.4,0,2.6-1.2,2.6-2.6V36c0-1.4-1.2-2.6-2.6-2.6l0,0
	c-1.4,0-2.6,1.2-2.6,2.6v8.4C28.9,45.9,30.1,47,31.5,47z"/>
<path id="_x30_7_x5F_2" class="st0" d="M12.1,63.5L12.1,63.5c1.3,0,2.3-1,2.3-2.3V35.7c0-1.3-1-2.3-2.3-2.3l0,0
	c-1.3,0-2.3,1-2.3,2.3v25.5C9.8,62.5,10.9,63.5,12.1,63.5z"/>
</svg>
